<svg enable-background="new 0 0 20 44" height="44" viewBox="0 0 20 44" width="20" xmlns="http://www.w3.org/2000/svg"><path d="m0 0h20v44h-20z" fill="none"/><path d="m4.9404 17.3412v.9258h-1.2363v.9727h1.1074v7.1719h-.8613v-.4922h-2.666v.4922h-.8613v-7.1719h1.084v-.9727h-1.3008v-.9258zm-3.6562 5.9765h2.666v-.6973h-.3867c-.4805 0-.7207-.2578-.7207-.75v-1.752h-.4922v.5625c-.0117 1.0957-.2285 1.8984-.6387 2.4082l-.4277-.3867zm0-3.1992v2.4199c.2812-.4277.4219-1.043.4277-1.8574v-.5625zm2.666 4.8867v-.8086h-2.666v.8086zm-1.0723-5.7656v-.9726h-.539v.9727h.539zm1.0723.8789h-.457v1.5586c0 .1348.0762.2051.252.2051h.2051v-1.7637zm5.2441 5.6895c-.1465.3164-.4805.4805-.9902.4805h-2.1211c-.5156 0-.7617-.3457-.7617-1.0371v-4.4884h2.748v-2.4844h-2.8476v-.9258h3.7793v4.3594h-2.7246v3.1523c0 .3281.0703.4922.2285.5156h1.5351c.2227 0 .3691-.1465.4277-.4219.0645-.2754.1055-.8027.123-1.5703l.9785.3105c-.0819 1.0725-.2049 1.7814-.3749 2.1096zm4.2715-8.4785c-.252.8145-.5859 1.582-.9961 2.2969v6.8262h-.9551v-5.4082c-.2871.3633-.5977.7148-.9141 1.0547l-.3223-1.0371c1.0254-1.1895 1.7871-2.5723 2.2793-4.1543zm1.7696.4394c-.0879.4629-.1758.9082-.293 1.3125h1.2363v-2.0449h.9727v2.0449h2.2617v.9551h-2.2617v2.2031h2.6426v.9434h-2.6426v3.2285h-.9727v-3.2285h-2.918v-.9434h2.918v-2.2031h-1.5469c-.2578.6445-.5684 1.2305-.9375 1.7637l-.627-.8086c.5977-.9141 1.0078-2.0273 1.2129-3.3398z" fill="#fff"/></svg>